<svg width="461" height="115" viewBox="0 0 461 115" fill="none" xmlns="http://www.w3.org/2000/svg">
<path d="M194.946 39.1581C194.946 44.7961 193.443 49.9563 190.436 54.6387C187.43 59.3211 183.455 62.9046 178.509 65.3891L194.946 110.111H176.182L160.909 68.6859H123.236V51.1985H165.127C168.521 51.1985 171.382 50.0518 173.709 47.7584C176.133 45.3694 177.345 42.5504 177.345 39.3014C177.345 35.9568 176.133 33.0901 173.709 30.7011C171.382 28.3121 168.521 27.1176 165.127 27.1176H123.236V9.77362H165.127C173.37 9.77362 180.4 12.6404 186.218 18.3739C192.036 24.1075 194.946 31.0355 194.946 39.1581Z" fill="white"/>
<path d="M281.31 110.111H209.6V92.7668H281.31V110.111ZM281.31 27.1176H209.6V9.77362H281.31V27.1176ZM269.237 68.6859H209.6V51.1985H269.237V68.6859Z" fill="white"/>
<path d="M367.675 110.111H295.965V92.7668H367.675V110.111ZM367.675 27.1176H295.965V9.77362H367.675V27.1176ZM355.602 68.6859H295.965V51.1985H355.602V68.6859Z" fill="white"/>
<path d="M442.548 9.77362H460.148V110.111H442.548L382.329 9.77362H402.839L442.548 75.9962V9.77362Z" fill="white"/>
<path d="M97.3246 67.1783C98.911 77.5503 94.8141 85.6419 87.5489 92.4094C72.793 106.154 50.5213 107.864 33.3046 96.8646C11.6524 83.0316 6.19453 55.6602 18.9622 35.6537C29.2266 19.5699 44.3084 12.7472 63.3919 14.1456C65.2177 14.2794 67.0481 14.7076 68.8119 15.216C71.01 15.8496 72.1307 15.0123 72.7673 13.0165C73.2944 11.3638 73.8594 9.70972 74.5823 8.13387C75.4983 6.13719 74.6928 5.24811 72.7694 4.7516C66.5421 3.14408 60.2272 2.49873 53.8094 3.03619C27.9576 5.2011 7.29235 22.9298 2.17825 47.9428C-1.01528 63.5623 2.14741 78.1459 11.5887 91.2583C20.006 102.948 31.3549 110.49 45.5076 113.63C69.3254 118.914 94.0787 108.479 104.934 87.9621C108.624 80.9892 109.644 73.5142 108.497 65.8207C105.93 48.6127 90.3211 40.7933 74.4599 48.5754C67.009 52.2311 60.6563 57.2611 54.513 62.9531C55.0761 61.7643 55.5536 60.5271 56.2158 59.3945C61.0009 51.211 67.9268 45.4793 76.8699 42.086C77.8881 41.6996 78.9072 41.3157 79.928 40.9363C81.2004 40.4635 81.4913 39.7034 80.505 38.7121C70.9875 29.1469 54.631 30.0737 48.1414 42.2628C46.2386 45.8367 44.9041 49.7295 42.7769 53.1563C38.1852 60.553 31.006 63.6154 22.4239 63.915C21.9215 63.9325 21.4128 63.8538 20.9145 63.8991C18.814 64.0901 18.1216 65.2842 19.4547 66.8568C21.0009 68.6808 22.7168 70.4533 24.6525 71.8562C38.1012 81.6029 59.8912 84.5462 75.6165 74.1532C81.2667 70.4189 85.781 65.7855 87.428 59.0182C87.9106 57.0353 89.1047 56.7269 90.8168 57.5083C94.9154 59.379 96.4398 62.9569 97.3246 67.1783Z" fill="white"/>
<path d="M99.2747 30.596C100.507 30.9866 101.585 31.6519 102.573 31.5402C103.654 31.418 105.196 30.7935 105.525 29.9879C105.831 29.2371 105.099 27.437 104.315 27.0151C102.055 25.7995 99.5427 25.0337 97.1201 24.1152C94.2718 23.0354 94.1103 22.7095 95.1336 19.9489C97.4786 13.6225 96.71 14.2975 102.683 16.4763C104.177 17.0212 105.671 17.8047 107.207 17.9161C108.289 17.9946 109.903 17.4252 110.459 16.6061C111.365 15.2707 110.576 13.8473 109.046 13.2076C106.655 12.2076 104.221 11.3009 101.771 10.4479C100.38 9.96367 99.6687 9.2625 99.347 7.70324C99.1269 6.63659 98.0031 5.35626 96.9594 4.91784C93.1079 3.29992 89.1473 1.91813 85.1772 0.594066C82.4164 -0.326688 81.0936 0.302082 80.0665 2.99423C77.7687 9.01705 75.5341 15.0643 73.3677 21.1341C72.4231 23.7803 72.998 24.9425 75.6532 25.9737C79.0849 27.3063 82.5406 28.5936 86.0458 29.7197C87.071 30.049 88.6028 30.1998 89.3811 29.679C92.0259 27.9091 94.447 28.5406 96.9735 29.7152C97.6542 30.0317 98.3774 30.2597 99.2747 30.596Z" fill="white"/>
<path d="M384.379 97.1147H388.364V105.314H392.67V99.1788H396.539V105.314H404.801V110.216H384.379V97.1147Z" fill="white"/>
<path d="M400.961 89.636V83.2144H404.801V94.5382H384.379V89.636H400.961Z" fill="white"/>
<path d="M405.004 71.3585C405.004 73.2506 404.558 74.9897 403.666 76.576C402.774 78.1432 401.533 79.395 399.943 80.3315C398.333 81.2489 396.529 81.7076 394.532 81.7076C392.534 81.7076 390.74 81.2489 389.15 80.3315C387.559 79.395 386.318 78.1432 385.426 76.576C384.534 74.9897 384.088 73.2506 384.088 71.3585C384.088 69.4664 384.534 67.7368 385.426 66.1696C386.318 64.5833 387.559 63.3411 389.15 62.4428C390.74 61.5254 392.534 61.0668 394.532 61.0668C396.529 61.0668 398.333 61.5254 399.943 62.4428C401.533 63.3602 402.774 64.6024 403.666 66.1696C404.558 67.7368 405.004 69.4664 405.004 71.3585ZM400.466 71.3585C400.466 69.7531 399.923 68.4726 398.837 67.517C397.751 66.5423 396.316 66.0549 394.532 66.0549C392.728 66.0549 391.293 66.5423 390.226 67.517C389.14 68.4726 388.597 69.7531 388.597 71.3585C388.597 72.983 389.13 74.2826 390.197 75.2573C391.264 76.2129 392.709 76.6907 394.532 76.6907C396.335 76.6907 397.78 76.2129 398.866 75.2573C399.933 74.2826 400.466 72.983 400.466 71.3585Z" fill="white"/>
<path d="M384.379 30.6464L404.801 35.8926V41.8269L391.361 45.0377L404.801 48.3631V54.2974L384.379 59.4002V54.154L399.244 51.2586L384.379 47.6751V42.2856L399.244 38.8454L384.379 35.9213V30.6464Z" fill="white"/>
</svg>
